# Blender v2.90.1 OBJ File: ''
# www.blender.org
mtllib Cilindro.mtl
o Cilindro
v -0.006567 -0.050000 -0.199892
v -0.006567 0.050000 -0.199892
v 0.006254 -0.050000 -0.199902
v 0.006254 0.050000 -0.199902
v 0.019048 -0.050000 -0.199091
v 0.019048 0.050000 -0.199091
v 0.031765 -0.050000 -0.197461
v 0.031765 0.050000 -0.197461
v 0.044351 -0.050000 -0.195020
v 0.044351 0.050000 -0.195020
v 0.056755 -0.050000 -0.191778
v 0.056755 0.050000 -0.191778
v 0.068926 -0.050000 -0.187748
v 0.068926 0.050000 -0.187748
v 0.080813 -0.050000 -0.182946
v 0.080813 0.050000 -0.182946
v 0.092369 -0.050000 -0.177392
v 0.092369 0.050000 -0.177392
v 0.103544 -0.050000 -0.171110
v 0.103544 0.050000 -0.171110
v 0.114295 -0.050000 -0.164124
v 0.114295 0.050000 -0.164124
v 0.124575 -0.050000 -0.156464
v 0.124575 0.050000 -0.156464
v 0.134344 -0.050000 -0.148161
v 0.134344 0.050000 -0.148161
v 0.143561 -0.050000 -0.139249
v 0.143561 0.050000 -0.139249
v 0.152187 -0.050000 -0.129765
v 0.152187 0.050000 -0.129765
v 0.160189 -0.050000 -0.119748
v 0.160189 0.050000 -0.119748
v 0.167532 -0.050000 -0.109238
v 0.167532 0.050000 -0.109238
v 0.174187 -0.050000 -0.098280
v 0.174187 0.050000 -0.098280
v 0.180126 -0.050000 -0.086918
v 0.180126 0.050000 -0.086918
v 0.185324 -0.050000 -0.075199
v 0.185324 0.050000 -0.075199
v 0.189762 -0.050000 -0.063171
v 0.189762 0.050000 -0.063171
v 0.193419 -0.050000 -0.050883
v 0.193419 0.050000 -0.050883
v 0.196282 -0.050000 -0.038386
v 0.196282 0.050000 -0.038386
v 0.198338 -0.050000 -0.025731
v 0.198338 0.050000 -0.025731
v 0.199579 -0.050000 -0.012971
v 0.199579 0.050000 -0.012971
v 0.200000 -0.050000 -0.000157
v 0.200000 0.050000 -0.000157
v 0.199599 -0.050000 0.012657
v 0.199599 0.050000 0.012657
v 0.198378 -0.050000 0.025420
v 0.198378 0.050000 0.025420
v 0.196342 -0.050000 0.038078
v 0.196342 0.050000 0.038078
v 0.193499 -0.050000 0.050579
v 0.193499 0.050000 0.050579
v 0.189861 -0.050000 0.062873
v 0.189861 0.050000 0.062873
v 0.185442 -0.050000 0.074908
v 0.185442 0.050000 0.074908
v 0.180262 -0.050000 0.086635
v 0.180262 0.050000 0.086635
v 0.174341 -0.050000 0.098007
v 0.174341 0.050000 0.098007
v 0.167703 -0.050000 0.108975
v 0.167703 0.050000 0.108975
v 0.160377 -0.050000 0.119496
v 0.160377 0.050000 0.119496
v 0.152391 -0.050000 0.129526
v 0.152391 0.050000 0.129526
v 0.143779 -0.050000 0.139024
v 0.143779 0.050000 0.139024
v 0.134576 -0.050000 0.147950
v 0.134576 0.050000 0.147950
v 0.124821 -0.050000 0.156268
v 0.124821 0.050000 0.156268
v 0.114552 -0.050000 0.163945
v 0.114552 0.050000 0.163945
v 0.103813 -0.050000 0.170947
v 0.103813 0.050000 0.170947
v 0.092647 -0.050000 0.177247
v 0.092647 0.050000 0.177247
v 0.081100 -0.050000 0.182819
v 0.081100 0.050000 0.182819
v 0.069220 -0.050000 0.187639
v 0.069220 0.050000 0.187639
v 0.057056 -0.050000 0.191689
v 0.057056 0.050000 0.191689
v 0.044657 -0.050000 0.194951
v 0.044657 0.050000 0.194951
v 0.032075 -0.050000 0.197411
v 0.032075 0.050000 0.197411
v 0.019361 -0.050000 0.199061
v 0.019361 0.050000 0.199061
v 0.006567 -0.050000 0.199892
v 0.006567 0.050000 0.199892
v -0.006253 -0.050000 0.199902
v -0.006253 0.050000 0.199902
v -0.019048 -0.050000 0.199091
v -0.019048 0.050000 0.199091
v -0.031765 -0.050000 0.197461
v -0.031765 0.050000 0.197461
v -0.044351 -0.050000 0.195020
v -0.044351 0.050000 0.195020
v -0.056755 -0.050000 0.191778
v -0.056755 0.050000 0.191778
v -0.068926 -0.050000 0.187748
v -0.068926 0.050000 0.187748
v -0.080813 -0.050000 0.182946
v -0.080813 0.050000 0.182946
v -0.092368 -0.050000 0.177392
v -0.092368 0.050000 0.177392
v -0.103544 -0.050000 0.171110
v -0.103544 0.050000 0.171110
v -0.114294 -0.050000 0.164124
v -0.114294 0.050000 0.164124
v -0.124575 -0.050000 0.156464
v -0.124575 0.050000 0.156464
v -0.134344 -0.050000 0.148161
v -0.134344 0.050000 0.148161
v -0.143560 -0.050000 0.139249
v -0.143560 0.050000 0.139249
v -0.152187 -0.050000 0.129765
v -0.152187 0.050000 0.129765
v -0.160189 -0.050000 0.119748
v -0.160189 0.050000 0.119748
v -0.167532 -0.050000 0.109239
v -0.167532 0.050000 0.109239
v -0.174187 -0.050000 0.098280
v -0.174187 0.050000 0.098280
v -0.180125 -0.050000 0.086918
v -0.180125 0.050000 0.086918
v -0.185324 -0.050000 0.075199
v -0.185324 0.050000 0.075199
v -0.189762 -0.050000 0.063171
v -0.189762 0.050000 0.063171
v -0.193419 -0.050000 0.050883
v -0.193419 0.050000 0.050883
v -0.196282 -0.050000 0.038386
v -0.196282 0.050000 0.038386
v -0.198338 -0.050000 0.025731
v -0.198338 0.050000 0.025731
v -0.199579 -0.050000 0.012971
v -0.199579 0.050000 0.012971
v -0.200000 -0.050000 0.000157
v -0.200000 0.050000 0.000157
v -0.199599 -0.050000 -0.012657
v -0.199599 0.050000 -0.012657
v -0.198378 -0.050000 -0.025419
v -0.198378 0.050000 -0.025419
v -0.196342 -0.050000 -0.038077
v -0.196342 0.050000 -0.038077
v -0.193499 -0.050000 -0.050579
v -0.193499 0.050000 -0.050579
v -0.189861 -0.050000 -0.062872
v -0.189861 0.050000 -0.062872
v -0.185442 -0.050000 -0.074908
v -0.185442 0.050000 -0.074908
v -0.180262 -0.050000 -0.086635
v -0.180262 0.050000 -0.086635
v -0.174341 -0.050000 -0.098006
v -0.174341 0.050000 -0.098006
v -0.167703 -0.050000 -0.108975
v -0.167703 0.050000 -0.108975
v -0.160377 -0.050000 -0.119496
v -0.160377 0.050000 -0.119496
v -0.152391 -0.050000 -0.129526
v -0.152391 0.050000 -0.129526
v -0.143779 -0.050000 -0.139023
v -0.143779 0.050000 -0.139023
v -0.134577 -0.050000 -0.147950
v -0.134577 0.050000 -0.147950
v -0.124821 -0.050000 -0.156268
v -0.124821 0.050000 -0.156268
v -0.114552 -0.050000 -0.163944
v -0.114552 0.050000 -0.163944
v -0.103813 -0.050000 -0.170947
v -0.103813 0.050000 -0.170947
v -0.092647 -0.050000 -0.177247
v -0.092647 0.050000 -0.177247
v -0.081101 -0.050000 -0.182819
v -0.081101 0.050000 -0.182819
v -0.069221 -0.050000 -0.187639
v -0.069221 0.050000 -0.187639
v -0.057056 -0.050000 -0.191689
v -0.057056 0.050000 -0.191689
v -0.044658 -0.050000 -0.194950
v -0.044658 0.050000 -0.194950
v -0.032075 -0.050000 -0.197411
v -0.032075 0.050000 -0.197411
v -0.019361 -0.050000 -0.199061
v -0.019361 0.050000 -0.199061
vt 1.000000 0.000000
vt 1.000000 1.000000
vt 0.989796 1.000000
vt 0.989796 0.000000
vt 0.979592 1.000000
vt 0.979592 0.000000
vt 0.969388 1.000000
vt 0.969388 0.000000
vt 0.959184 1.000000
vt 0.959184 0.000000
vt 0.948980 1.000000
vt 0.948980 0.000000
vt 0.938776 1.000000
vt 0.938776 0.000000
vt 0.928571 1.000000
vt 0.928571 0.000000
vt 0.918367 1.000000
vt 0.918367 0.000000
vt 0.908163 1.000000
vt 0.908163 0.000000
vt 0.897959 1.000000
vt 0.897959 0.000000
vt 0.887755 1.000000
vt 0.887755 0.000000
vt 0.877551 1.000000
vt 0.877551 0.000000
vt 0.867347 1.000000
vt 0.867347 0.000000
vt 0.857143 1.000000
vt 0.857143 0.000000
vt 0.846939 1.000000
vt 0.846939 0.000000
vt 0.836735 1.000000
vt 0.836735 0.000000
vt 0.826531 1.000000
vt 0.826531 0.000000
vt 0.816327 1.000000
vt 0.816327 0.000000
vt 0.806123 1.000000
vt 0.806123 0.000000
vt 0.795918 1.000000
vt 0.795918 0.000000
vt 0.785714 1.000000
vt 0.785714 0.000000
vt 0.775510 1.000000
vt 0.775510 0.000000
vt 0.765306 1.000000
vt 0.765306 0.000000
vt 0.755102 1.000000
vt 0.755102 0.000000
vt 0.744898 1.000000
vt 0.744898 0.000000
vt 0.734694 1.000000
vt 0.734694 0.000000
vt 0.724490 1.000000
vt 0.724490 0.000000
vt 0.714286 1.000000
vt 0.714286 0.000000
vt 0.704082 1.000000
vt 0.704082 0.000000
vt 0.693878 1.000000
vt 0.693878 0.000000
vt 0.683674 1.000000
vt 0.683674 0.000000
vt 0.673470 1.000000
vt 0.673470 0.000000
vt 0.663265 1.000000
vt 0.663265 0.000000
vt 0.653061 1.000000
vt 0.653061 0.000000
vt 0.642857 1.000000
vt 0.642857 0.000000
vt 0.632653 1.000000
vt 0.632653 0.000000
vt 0.622449 1.000000
vt 0.622449 0.000000
vt 0.612245 1.000000
vt 0.612245 0.000000
vt 0.602041 1.000000
vt 0.602041 0.000000
vt 0.591837 1.000000
vt 0.591837 0.000000
vt 0.581633 1.000000
vt 0.581633 0.000000
vt 0.571429 1.000000
vt 0.571429 0.000000
vt 0.561225 1.000000
vt 0.561225 0.000000
vt 0.551021 1.000000
vt 0.551021 0.000000
vt 0.540817 1.000000
vt 0.540817 0.000000
vt 0.530612 1.000000
vt 0.530612 0.000000
vt 0.520408 1.000000
vt 0.520408 0.000000
vt 0.510204 1.000000
vt 0.510204 0.000000
vt 0.500000 1.000000
vt 0.500000 0.000000
vt 0.489796 1.000000
vt 0.489796 0.000000
vt 0.479592 1.000000
vt 0.479592 0.000000
vt 0.469388 1.000000
vt 0.469388 0.000000
vt 0.459184 1.000000
vt 0.459184 0.000000
vt 0.448980 1.000000
vt 0.448980 0.000000
vt 0.438776 1.000000
vt 0.438776 0.000000
vt 0.428572 1.000000
vt 0.428572 0.000000
vt 0.418368 1.000000
vt 0.418368 0.000000
vt 0.408164 1.000000
vt 0.408164 0.000000
vt 0.397959 1.000000
vt 0.397959 0.000000
vt 0.387755 1.000000
vt 0.387755 0.000000
vt 0.377551 1.000000
vt 0.377551 0.000000
vt 0.367347 1.000000
vt 0.367347 0.000000
vt 0.357143 1.000000
vt 0.357143 0.000000
vt 0.346939 1.000000
vt 0.346939 0.000000
vt 0.336735 1.000000
vt 0.336735 0.000000
vt 0.326531 1.000000
vt 0.326531 0.000000
vt 0.316327 1.000000
vt 0.316327 0.000000
vt 0.306123 1.000000
vt 0.306123 0.000000
vt 0.295919 1.000000
vt 0.295919 0.000000
vt 0.285715 1.000000
vt 0.285715 0.000000
vt 0.275511 1.000000
vt 0.275511 0.000000
vt 0.265306 1.000000
vt 0.265306 0.000000
vt 0.255102 1.000000
vt 0.255102 0.000000
vt 0.244898 1.000000
vt 0.244898 0.000000
vt 0.234694 1.000000
vt 0.234694 0.000000
vt 0.224490 1.000000
vt 0.224490 0.000000
vt 0.214286 1.000000
vt 0.214286 0.000000
vt 0.204082 1.000000
vt 0.204082 0.000000
vt 0.193878 1.000000
vt 0.193878 0.000000
vt 0.183674 1.000000
vt 0.183674 0.000000
vt 0.173470 1.000000
vt 0.173470 0.000000
vt 0.163266 1.000000
vt 0.163266 0.000000
vt 0.153062 1.000000
vt 0.153062 0.000000
vt 0.142858 1.000000
vt 0.142858 0.000000
vt 0.132653 1.000000
vt 0.132653 0.000000
vt 0.122449 1.000000
vt 0.122449 0.000000
vt 0.112245 1.000000
vt 0.112245 0.000000
vt 0.102041 1.000000
vt 0.102041 0.000000
vt 0.091837 1.000000
vt 0.091837 0.000000
vt 0.081633 1.000000
vt 0.081633 0.000000
vt 0.071429 1.000000
vt 0.071429 0.000000
vt 0.061225 1.000000
vt 0.061225 0.000000
vt 0.051021 1.000000
vt 0.051021 0.000000
vt 0.040817 1.000000
vt 0.040817 0.000000
vt 0.030613 1.000000
vt 0.030613 0.000000
vt 0.020409 1.000000
vt 0.020409 0.000000
vt 0.010204 1.000000
vt 0.010204 0.000000
vt 0.000000 1.000000
vt 0.000000 0.000000
vn -0.0328 0.0000 -0.9995
vn 0.0313 0.0000 -0.9995
vn 0.0952 0.0000 -0.9955
vn 0.1588 0.0000 -0.9873
vn 0.2217 0.0000 -0.9751
vn 0.2838 0.0000 -0.9589
vn 0.3446 0.0000 -0.9387
vn 0.4041 0.0000 -0.9147
vn 0.4618 0.0000 -0.8870
vn 0.5177 0.0000 -0.8555
vn 0.5715 0.0000 -0.8206
vn 0.6229 0.0000 -0.7823
vn 0.6717 0.0000 -0.7408
vn 0.7178 0.0000 -0.6962
vn 0.7609 0.0000 -0.6488
vn 0.8009 0.0000 -0.5987
vn 0.8376 0.0000 -0.5462
vn 0.8709 0.0000 -0.4914
vn 0.9006 0.0000 -0.4346
vn 0.9266 0.0000 -0.3760
vn 0.9488 0.0000 -0.3158
vn 0.9671 0.0000 -0.2544
vn 0.9814 0.0000 -0.1919
vn 0.9917 0.0000 -0.1286
vn 0.9979 0.0000 -0.0649
vn 1.0000 0.0000 -0.0008
vn 0.9980 0.0000 0.0633
vn 0.9919 0.0000 0.1271
vn 0.9817 0.0000 0.1904
vn 0.9675 0.0000 0.2529
vn 0.9493 0.0000 0.3143
vn 0.9272 0.0000 0.3745
vn 0.9013 0.0000 0.4331
vn 0.8717 0.0000 0.4900
vn 0.8385 0.0000 0.5448
vn 0.8019 0.0000 0.5975
vn 0.7619 0.0000 0.6476
vn 0.7189 0.0000 0.6951
vn 0.6729 0.0000 0.7397
vn 0.6241 0.0000 0.7813
vn 0.5727 0.0000 0.8197
vn 0.5191 0.0000 0.8547
vn 0.4632 0.0000 0.8862
vn 0.4055 0.0000 0.9141
vn 0.3461 0.0000 0.9382
vn 0.2853 0.0000 0.9584
vn 0.2233 0.0000 0.9747
vn 0.1603 0.0000 0.9870
vn 0.0968 0.0000 0.9953
vn 0.0328 0.0000 0.9995
vn -0.0313 0.0000 0.9995
vn -0.0952 0.0000 0.9955
vn -0.1588 0.0000 0.9873
vn -0.2217 0.0000 0.9751
vn -0.2838 0.0000 0.9589
vn -0.3446 0.0000 0.9387
vn -0.4040 0.0000 0.9147
vn -0.4618 0.0000 0.8870
vn -0.5177 0.0000 0.8555
vn -0.5715 0.0000 0.8206
vn -0.6229 0.0000 0.7823
vn -0.6717 0.0000 0.7408
vn -0.7178 0.0000 0.6962
vn -0.7609 0.0000 0.6488
vn -0.8009 0.0000 0.5987
vn -0.8376 0.0000 0.5462
vn -0.8709 0.0000 0.4914
vn -0.9006 0.0000 0.4346
vn -0.9266 0.0000 0.3760
vn -0.9488 0.0000 0.3158
vn -0.9671 0.0000 0.2544
vn -0.9814 0.0000 0.1919
vn -0.9917 0.0000 0.1286
vn -0.9979 0.0000 0.0649
vn -1.0000 0.0000 0.0008
vn -0.9980 0.0000 -0.0633
vn -0.9919 0.0000 -0.1271
vn -0.9817 0.0000 -0.1904
vn -0.9675 0.0000 -0.2529
vn -0.9493 0.0000 -0.3143
vn -0.9272 0.0000 -0.3745
vn -0.9013 0.0000 -0.4331
vn -0.8717 0.0000 -0.4900
vn -0.8385 0.0000 -0.5448
vn -0.8019 0.0000 -0.5975
vn -0.7620 0.0000 -0.6476
vn -0.7189 0.0000 -0.6951
vn -0.6729 0.0000 -0.7397
vn -0.6241 0.0000 -0.7813
vn -0.5727 0.0000 -0.8197
vn -0.5191 0.0000 -0.8547
vn -0.4632 0.0000 -0.8862
vn -0.4055 0.0000 -0.9141
vn -0.3461 0.0000 -0.9382
vn -0.2853 0.0000 -0.9584
vn -0.2233 0.0000 -0.9747
vn -0.1604 0.0000 -0.9870
vn -0.0968 0.0000 -0.9953
usemtl None
s 1
f 1/1/1 2/2/1 4/3/2 3/4/2
f 3/4/2 4/3/2 6/5/3 5/6/3
f 5/6/3 6/5/3 8/7/4 7/8/4
f 7/8/4 8/7/4 10/9/5 9/10/5
f 9/10/5 10/9/5 12/11/6 11/12/6
f 11/12/6 12/11/6 14/13/7 13/14/7
f 13/14/7 14/13/7 16/15/8 15/16/8
f 15/16/8 16/15/8 18/17/9 17/18/9
f 17/18/9 18/17/9 20/19/10 19/20/10
f 19/20/10 20/19/10 22/21/11 21/22/11
f 21/22/11 22/21/11 24/23/12 23/24/12
f 23/24/12 24/23/12 26/25/13 25/26/13
f 25/26/13 26/25/13 28/27/14 27/28/14
f 27/28/14 28/27/14 30/29/15 29/30/15
f 29/30/15 30/29/15 32/31/16 31/32/16
f 31/32/16 32/31/16 34/33/17 33/34/17
f 33/34/17 34/33/17 36/35/18 35/36/18
f 35/36/18 36/35/18 38/37/19 37/38/19
f 37/38/19 38/37/19 40/39/20 39/40/20
f 39/40/20 40/39/20 42/41/21 41/42/21
f 41/42/21 42/41/21 44/43/22 43/44/22
f 43/44/22 44/43/22 46/45/23 45/46/23
f 45/46/23 46/45/23 48/47/24 47/48/24
f 47/48/24 48/47/24 50/49/25 49/50/25
f 49/50/25 50/49/25 52/51/26 51/52/26
f 51/52/26 52/51/26 54/53/27 53/54/27
f 53/54/27 54/53/27 56/55/28 55/56/28
f 55/56/28 56/55/28 58/57/29 57/58/29
f 57/58/29 58/57/29 60/59/30 59/60/30
f 59/60/30 60/59/30 62/61/31 61/62/31
f 61/62/31 62/61/31 64/63/32 63/64/32
f 63/64/32 64/63/32 66/65/33 65/66/33
f 65/66/33 66/65/33 68/67/34 67/68/34
f 67/68/34 68/67/34 70/69/35 69/70/35
f 69/70/35 70/69/35 72/71/36 71/72/36
f 71/72/36 72/71/36 74/73/37 73/74/37
f 73/74/37 74/73/37 76/75/38 75/76/38
f 75/76/38 76/75/38 78/77/39 77/78/39
f 77/78/39 78/77/39 80/79/40 79/80/40
f 79/80/40 80/79/40 82/81/41 81/82/41
f 81/82/41 82/81/41 84/83/42 83/84/42
f 83/84/42 84/83/42 86/85/43 85/86/43
f 85/86/43 86/85/43 88/87/44 87/88/44
f 87/88/44 88/87/44 90/89/45 89/90/45
f 89/90/45 90/89/45 92/91/46 91/92/46
f 91/92/46 92/91/46 94/93/47 93/94/47
f 93/94/47 94/93/47 96/95/48 95/96/48
f 95/96/48 96/95/48 98/97/49 97/98/49
f 97/98/49 98/97/49 100/99/50 99/100/50
f 99/100/50 100/99/50 102/101/51 101/102/51
f 101/102/51 102/101/51 104/103/52 103/104/52
f 103/104/52 104/103/52 106/105/53 105/106/53
f 105/106/53 106/105/53 108/107/54 107/108/54
f 107/108/54 108/107/54 110/109/55 109/110/55
f 109/110/55 110/109/55 112/111/56 111/112/56
f 111/112/56 112/111/56 114/113/57 113/114/57
f 113/114/57 114/113/57 116/115/58 115/116/58
f 115/116/58 116/115/58 118/117/59 117/118/59
f 117/118/59 118/117/59 120/119/60 119/120/60
f 119/120/60 120/119/60 122/121/61 121/122/61
f 121/122/61 122/121/61 124/123/62 123/124/62
f 123/124/62 124/123/62 126/125/63 125/126/63
f 125/126/63 126/125/63 128/127/64 127/128/64
f 127/128/64 128/127/64 130/129/65 129/130/65
f 129/130/65 130/129/65 132/131/66 131/132/66
f 131/132/66 132/131/66 134/133/67 133/134/67
f 133/134/67 134/133/67 136/135/68 135/136/68
f 135/136/68 136/135/68 138/137/69 137/138/69
f 137/138/69 138/137/69 140/139/70 139/140/70
f 139/140/70 140/139/70 142/141/71 141/142/71
f 141/142/71 142/141/71 144/143/72 143/144/72
f 143/144/72 144/143/72 146/145/73 145/146/73
f 145/146/73 146/145/73 148/147/74 147/148/74
f 147/148/74 148/147/74 150/149/75 149/150/75
f 149/150/75 150/149/75 152/151/76 151/152/76
f 151/152/76 152/151/76 154/153/77 153/154/77
f 153/154/77 154/153/77 156/155/78 155/156/78
f 155/156/78 156/155/78 158/157/79 157/158/79
f 157/158/79 158/157/79 160/159/80 159/160/80
f 159/160/80 160/159/80 162/161/81 161/162/81
f 161/162/81 162/161/81 164/163/82 163/164/82
f 163/164/82 164/163/82 166/165/83 165/166/83
f 165/166/83 166/165/83 168/167/84 167/168/84
f 167/168/84 168/167/84 170/169/85 169/170/85
f 169/170/85 170/169/85 172/171/86 171/172/86
f 171/172/86 172/171/86 174/173/87 173/174/87
f 173/174/87 174/173/87 176/175/88 175/176/88
f 175/176/88 176/175/88 178/177/89 177/178/89
f 177/178/89 178/177/89 180/179/90 179/180/90
f 179/180/90 180/179/90 182/181/91 181/182/91
f 181/182/91 182/181/91 184/183/92 183/184/92
f 183/184/92 184/183/92 186/185/93 185/186/93
f 185/186/93 186/185/93 188/187/94 187/188/94
f 187/188/94 188/187/94 190/189/95 189/190/95
f 189/190/95 190/189/95 192/191/96 191/192/96
f 191/192/96 192/191/96 194/193/97 193/194/97
f 193/194/97 194/193/97 196/195/98 195/196/98
f 195/196/98 196/195/98 2/197/1 1/198/1
